<svg width="560" height="76" viewBox="0 0 560 76" fill="none" xmlns="http://www.w3.org/2000/svg">
<g clip-path="url(#clip0_1_3213)">
<path d="M10 15C10 12.2386 7.76142 10 5 10C2.23858 10 0 12.2386 0 15V53C0 55.7614 2.23858 58 5 58C7.76142 58 10 55.7614 10 53V15Z" fill="#2B4C7E"/>
<path d="M24 23C24 20.2386 21.7614 18 19 18C16.2386 18 14 20.2386 14 23V53C14 55.7614 16.2386 58 19 58C21.7614 58 24 55.7614 24 53V23Z" fill="#2B4C7E"/>
<path d="M38 31C38 28.2386 35.7614 26 33 26C30.2386 26 28 28.2386 28 31V53C28 55.7614 30.2386 58 33 58C35.7614 58 38 55.7614 38 53V31Z" fill="#2B4C7E"/>
<path d="M66.92 32.2V38H63.44C60.96 38 59.0267 37.4 57.64 36.2C56.2533 34.9733 55.56 32.9867 55.56 30.24V21.36H52.84V15.68H55.56V10.24H62.4V15.68H66.88V21.36H62.4V30.32C62.4 30.9867 62.56 31.4667 62.88 31.76C63.2 32.0533 63.7333 32.2 64.48 32.2H66.92ZM69.37 26.8C69.37 24.5067 69.7967 22.4933 70.65 20.76C71.53 19.0267 72.7167 17.6933 74.21 16.76C75.7033 15.8267 77.37 15.36 79.21 15.36C80.7833 15.36 82.1567 15.68 83.33 16.32C84.53 16.96 85.45 17.8 86.09 18.84V15.68H92.93V38H86.09V34.84C85.4233 35.88 84.49 36.72 83.29 37.36C82.1167 38 80.7433 38.32 79.17 38.32C77.3567 38.32 75.7033 37.8533 74.21 36.92C72.7167 35.96 71.53 34.6133 70.65 32.88C69.7967 31.12 69.37 29.0933 69.37 26.8ZM86.09 26.84C86.09 25.1333 85.61 23.7867 84.65 22.8C83.7167 21.8133 82.57 21.32 81.21 21.32C79.85 21.32 78.69 21.8133 77.73 22.8C76.7967 23.76 76.33 25.0933 76.33 26.8C76.33 28.5067 76.7967 29.8667 77.73 30.88C78.69 31.8667 79.85 32.36 81.21 32.36C82.57 32.36 83.7167 31.8667 84.65 30.88C85.61 29.8933 86.09 28.5467 86.09 26.84ZM104.718 18.84C105.358 17.8 106.278 16.96 107.478 16.32C108.678 15.68 110.052 15.36 111.598 15.36C113.438 15.36 115.105 15.8267 116.598 16.76C118.092 17.6933 119.265 19.0267 120.118 20.76C120.998 22.4933 121.438 24.5067 121.438 26.8C121.438 29.0933 120.998 31.12 120.118 32.88C119.265 34.6133 118.092 35.96 116.598 36.92C115.105 37.8533 113.438 38.32 111.598 38.32C110.025 38.32 108.652 38.0133 107.478 37.4C106.305 36.76 105.385 35.92 104.718 34.88V38H97.8784V8.4H104.718V18.84ZM114.478 26.8C114.478 25.0933 113.998 23.76 113.038 22.8C112.105 21.8133 110.945 21.32 109.558 21.32C108.198 21.32 107.038 21.8133 106.078 22.8C105.145 23.7867 104.678 25.1333 104.678 26.84C104.678 28.5467 105.145 29.8933 106.078 30.88C107.038 31.8667 108.198 32.36 109.558 32.36C110.918 32.36 112.078 31.8667 113.038 30.88C113.998 29.8667 114.478 28.5067 114.478 26.8ZM131.867 18.84C132.507 17.8 133.427 16.96 134.627 16.32C135.827 15.68 137.2 15.36 138.747 15.36C140.587 15.36 142.254 15.8267 143.747 16.76C145.24 17.6933 146.414 19.0267 147.267 20.76C148.147 22.4933 148.587 24.5067 148.587 26.8C148.587 29.0933 148.147 31.12 147.267 32.88C146.414 34.6133 145.24 35.96 143.747 36.92C142.254 37.8533 140.587 38.32 138.747 38.32C137.174 38.32 135.8 38.0133 134.627 37.4C133.454 36.76 132.534 35.92 131.867 34.88V38H125.027V8.4H131.867V18.84ZM141.627 26.8C141.627 25.0933 141.147 23.76 140.187 22.8C139.254 21.8133 138.094 21.32 136.707 21.32C135.347 21.32 134.187 21.8133 133.227 22.8C132.294 23.7867 131.827 25.1333 131.827 26.84C131.827 28.5467 132.294 29.8933 133.227 30.88C134.187 31.8667 135.347 32.36 136.707 32.36C138.067 32.36 139.227 31.8667 140.187 30.88C141.147 29.8667 141.627 28.5067 141.627 26.8ZM173.215 26.48C173.215 27.12 173.175 27.7867 173.095 28.48H157.615C157.722 29.8667 158.162 30.9333 158.935 31.68C159.735 32.4 160.709 32.76 161.855 32.76C163.562 32.76 164.749 32.04 165.415 30.6H172.695C172.322 32.0667 171.642 33.3867 170.655 34.56C169.695 35.7333 168.482 36.6533 167.015 37.32C165.549 37.9867 163.909 38.32 162.095 38.32C159.909 38.32 157.962 37.8533 156.255 36.92C154.549 35.9867 153.215 34.6533 152.255 32.92C151.295 31.1867 150.815 29.16 150.815 26.84C150.815 24.52 151.282 22.4933 152.215 20.76C153.175 19.0267 154.509 17.6933 156.215 16.76C157.922 15.8267 159.882 15.36 162.095 15.36C164.255 15.36 166.175 15.8133 167.855 16.72C169.535 17.6267 170.842 18.92 171.775 20.6C172.735 22.28 173.215 24.24 173.215 26.48ZM166.215 24.68C166.215 23.5067 165.815 22.5733 165.015 21.88C164.215 21.1867 163.215 20.84 162.015 20.84C160.869 20.84 159.895 21.1733 159.095 21.84C158.322 22.5067 157.842 23.4533 157.655 24.68H166.215ZM183.664 19.4C184.464 18.1733 185.464 17.2133 186.664 16.52C187.864 15.8 189.197 15.44 190.664 15.44V22.68H188.784C187.077 22.68 185.797 23.0533 184.944 23.8C184.09 24.52 183.664 25.8 183.664 27.64V38H176.824V15.68H183.664V19.4Z" fill="#1A1A1A"/>
<path d="M58.112 52.692C58.416 52.74 58.692 52.864 58.94 53.064C59.196 53.264 59.396 53.512 59.54 53.808C59.692 54.104 59.768 54.42 59.768 54.756C59.768 55.18 59.66 55.564 59.444 55.908C59.228 56.244 58.912 56.512 58.496 56.712C58.088 56.904 57.604 57 57.044 57H53.924V48.636H56.924C57.492 48.636 57.976 48.732 58.376 48.924C58.776 49.108 59.076 49.36 59.276 49.68C59.476 50 59.576 50.36 59.576 50.76C59.576 51.256 59.44 51.668 59.168 51.996C58.904 52.316 58.552 52.548 58.112 52.692ZM55.016 52.248H56.852C57.364 52.248 57.76 52.128 58.04 51.888C58.32 51.648 58.46 51.316 58.46 50.892C58.46 50.468 58.32 50.136 58.04 49.896C57.76 49.656 57.356 49.536 56.828 49.536H55.016V52.248ZM56.948 56.1C57.492 56.1 57.916 55.972 58.22 55.716C58.524 55.46 58.676 55.104 58.676 54.648C58.676 54.184 58.516 53.82 58.196 53.556C57.876 53.284 57.448 53.148 56.912 53.148H55.016V56.1H56.948ZM65.3514 57.108C64.7354 57.108 64.1754 56.968 63.6714 56.688C63.1754 56.408 62.7834 56.012 62.4954 55.5C62.2154 54.98 62.0754 54.38 62.0754 53.7C62.0754 53.028 62.2194 52.436 62.5074 51.924C62.8034 51.404 63.2034 51.008 63.7074 50.736C64.2114 50.456 64.7754 50.316 65.3994 50.316C66.0234 50.316 66.5874 50.456 67.0914 50.736C67.5954 51.008 67.9914 51.4 68.2794 51.912C68.5754 52.424 68.7234 53.02 68.7234 53.7C68.7234 54.38 68.5714 54.98 68.2674 55.5C67.9714 56.012 67.5674 56.408 67.0554 56.688C66.5434 56.968 65.9754 57.108 65.3514 57.108ZM65.3514 56.148C65.7434 56.148 66.1114 56.056 66.4554 55.872C66.7994 55.688 67.0754 55.412 67.2834 55.044C67.4994 54.676 67.6074 54.228 67.6074 53.7C67.6074 53.172 67.5034 52.724 67.2954 52.356C67.0874 51.988 66.8154 51.716 66.4794 51.54C66.1434 51.356 65.7794 51.264 65.3874 51.264C64.9874 51.264 64.6194 51.356 64.2834 51.54C63.9554 51.716 63.6914 51.988 63.4914 52.356C63.2914 52.724 63.1914 53.172 63.1914 53.7C63.1914 54.236 63.2874 54.688 63.4794 55.056C63.6794 55.424 63.9434 55.7 64.2714 55.884C64.5994 56.06 64.9594 56.148 65.3514 56.148ZM74.2272 57.108C73.6112 57.108 73.0512 56.968 72.5472 56.688C72.0512 56.408 71.6592 56.012 71.3712 55.5C71.0912 54.98 70.9512 54.38 70.9512 53.7C70.9512 53.028 71.0952 52.436 71.3832 51.924C71.6792 51.404 72.0792 51.008 72.5832 50.736C73.0872 50.456 73.6512 50.316 74.2752 50.316C74.8992 50.316 75.4632 50.456 75.9672 50.736C76.4712 51.008 76.8672 51.4 77.1552 51.912C77.4512 52.424 77.5992 53.02 77.5992 53.7C77.5992 54.38 77.4472 54.98 77.1432 55.5C76.8472 56.012 76.4432 56.408 75.9312 56.688C75.4192 56.968 74.8512 57.108 74.2272 57.108ZM74.2272 56.148C74.6192 56.148 74.9872 56.056 75.3312 55.872C75.6752 55.688 75.9512 55.412 76.1592 55.044C76.3752 54.676 76.4832 54.228 76.4832 53.7C76.4832 53.172 76.3792 52.724 76.1712 52.356C75.9632 51.988 75.6912 51.716 75.3552 51.54C75.0192 51.356 74.6552 51.264 74.2632 51.264C73.8632 51.264 73.4952 51.356 73.1592 51.54C72.8312 51.716 72.5672 51.988 72.3672 52.356C72.1672 52.724 72.0672 53.172 72.0672 53.7C72.0672 54.236 72.1632 54.688 72.3552 55.056C72.5552 55.424 72.8192 55.7 73.1472 55.884C73.4752 56.06 73.8352 56.148 74.2272 56.148ZM83.9069 57L81.3269 54.096V57H80.2349V48.12H81.3269V53.34L83.8589 50.424H85.3829L82.2869 53.7L85.3949 57H83.9069ZM91.2827 57L88.7027 54.096V57H87.6107V48.12H88.7027V53.34L91.2347 50.424H92.7587L89.6627 53.7L92.7707 57H91.2827ZM100.987 53.46C100.987 53.668 100.975 53.888 100.951 54.12H95.6945C95.7345 54.768 95.9545 55.276 96.3545 55.644C96.7625 56.004 97.2545 56.184 97.8305 56.184C98.3025 56.184 98.6945 56.076 99.0065 55.86C99.3265 55.636 99.5505 55.34 99.6785 54.972H100.855C100.679 55.604 100.327 56.12 99.7985 56.52C99.2705 56.912 98.6145 57.108 97.8305 57.108C97.2065 57.108 96.6465 56.968 96.1505 56.688C95.6625 56.408 95.2785 56.012 94.9985 55.5C94.7185 54.98 94.5785 54.38 94.5785 53.7C94.5785 53.02 94.7145 52.424 94.9865 51.912C95.2585 51.4 95.6385 51.008 96.1265 50.736C96.6225 50.456 97.1905 50.316 97.8305 50.316C98.4545 50.316 99.0065 50.452 99.4865 50.724C99.9665 50.996 100.335 51.372 100.591 51.852C100.855 52.324 100.987 52.86 100.987 53.46ZM99.8585 53.232C99.8585 52.816 99.7665 52.46 99.5825 52.164C99.3985 51.86 99.1465 51.632 98.8265 51.48C98.5145 51.32 98.1665 51.24 97.7825 51.24C97.2305 51.24 96.7585 51.416 96.3665 51.768C95.9825 52.12 95.7625 52.608 95.7065 53.232H99.8585ZM109.628 53.46C109.628 53.668 109.616 53.888 109.592 54.12H104.336C104.376 54.768 104.596 55.276 104.996 55.644C105.404 56.004 105.896 56.184 106.472 56.184C106.944 56.184 107.336 56.076 107.648 55.86C107.968 55.636 108.192 55.34 108.32 54.972H109.496C109.32 55.604 108.968 56.12 108.44 56.52C107.912 56.912 107.256 57.108 106.472 57.108C105.848 57.108 105.288 56.968 104.792 56.688C104.304 56.408 103.92 56.012 103.64 55.5C103.36 54.98 103.22 54.38 103.22 53.7C103.22 53.02 103.356 52.424 103.628 51.912C103.9 51.4 104.28 51.008 104.768 50.736C105.264 50.456 105.832 50.316 106.472 50.316C107.096 50.316 107.648 50.452 108.128 50.724C108.608 50.996 108.976 51.372 109.232 51.852C109.496 52.324 109.628 52.86 109.628 53.46ZM108.5 53.232C108.5 52.816 108.408 52.46 108.224 52.164C108.04 51.86 107.788 51.632 107.468 51.48C107.156 51.32 106.808 51.24 106.424 51.24C105.872 51.24 105.4 51.416 105.008 51.768C104.624 52.12 104.404 52.608 104.348 53.232H108.5ZM113.361 51.636C113.577 51.26 113.897 50.948 114.321 50.7C114.753 50.444 115.253 50.316 115.821 50.316C116.405 50.316 116.933 50.456 117.405 50.736C117.885 51.016 118.261 51.412 118.533 51.924C118.805 52.428 118.941 53.016 118.941 53.688C118.941 54.352 118.805 54.944 118.533 55.464C118.261 55.984 117.885 56.388 117.405 56.676C116.933 56.964 116.405 57.108 115.821 57.108C115.261 57.108 114.765 56.984 114.333 56.736C113.909 56.48 113.585 56.164 113.361 55.788V60.12H112.269V50.424H113.361V51.636ZM117.825 53.688C117.825 53.192 117.725 52.76 117.525 52.392C117.325 52.024 117.053 51.744 116.709 51.552C116.373 51.36 116.001 51.264 115.593 51.264C115.193 51.264 114.821 51.364 114.477 51.564C114.141 51.756 113.869 52.04 113.661 52.416C113.461 52.784 113.361 53.212 113.361 53.7C113.361 54.196 113.461 54.632 113.661 55.008C113.869 55.376 114.141 55.66 114.477 55.86C114.821 56.052 115.193 56.148 115.593 56.148C116.001 56.148 116.373 56.052 116.709 55.86C117.053 55.66 117.325 55.376 117.525 55.008C117.725 54.632 117.825 54.192 117.825 53.688ZM122.143 49.356C121.935 49.356 121.759 49.284 121.615 49.14C121.471 48.996 121.399 48.82 121.399 48.612C121.399 48.404 121.471 48.228 121.615 48.084C121.759 47.94 121.935 47.868 122.143 47.868C122.343 47.868 122.511 47.94 122.647 48.084C122.791 48.228 122.863 48.404 122.863 48.612C122.863 48.82 122.791 48.996 122.647 49.14C122.511 49.284 122.343 49.356 122.143 49.356ZM122.671 50.424V57H121.579V50.424H122.671ZM128.936 50.304C129.736 50.304 130.384 50.548 130.88 51.036C131.376 51.516 131.624 52.212 131.624 53.124V57H130.544V53.28C130.544 52.624 130.38 52.124 130.052 51.78C129.724 51.428 129.276 51.252 128.708 51.252C128.132 51.252 127.672 51.432 127.328 51.792C126.992 52.152 126.824 52.676 126.824 53.364V57H125.732V50.424H126.824V51.36C127.04 51.024 127.332 50.764 127.7 50.58C128.076 50.396 128.488 50.304 128.936 50.304ZM137.32 50.316C137.888 50.316 138.384 50.44 138.808 50.688C139.24 50.936 139.56 51.248 139.768 51.624V50.424H140.872V57.144C140.872 57.744 140.744 58.276 140.488 58.74C140.232 59.212 139.864 59.58 139.384 59.844C138.912 60.108 138.36 60.24 137.728 60.24C136.864 60.24 136.144 60.036 135.568 59.628C134.992 59.22 134.652 58.664 134.548 57.96H135.628C135.748 58.36 135.996 58.68 136.372 58.92C136.748 59.168 137.2 59.292 137.728 59.292C138.328 59.292 138.816 59.104 139.192 58.728C139.576 58.352 139.768 57.824 139.768 57.144V55.764C139.552 56.148 139.232 56.468 138.808 56.724C138.384 56.98 137.888 57.108 137.32 57.108C136.736 57.108 136.204 56.964 135.724 56.676C135.252 56.388 134.88 55.984 134.608 55.464C134.336 54.944 134.2 54.352 134.2 53.688C134.2 53.016 134.336 52.428 134.608 51.924C134.88 51.412 135.252 51.016 135.724 50.736C136.204 50.456 136.736 50.316 137.32 50.316ZM139.768 53.7C139.768 53.204 139.668 52.772 139.468 52.404C139.268 52.036 138.996 51.756 138.652 51.564C138.316 51.364 137.944 51.264 137.536 51.264C137.128 51.264 136.756 51.36 136.42 51.552C136.084 51.744 135.816 52.024 135.616 52.392C135.416 52.76 135.316 53.192 135.316 53.688C135.316 54.192 135.416 54.632 135.616 55.008C135.816 55.376 136.084 55.66 136.42 55.86C136.756 56.052 137.128 56.148 137.536 56.148C137.944 56.148 138.316 56.052 138.652 55.86C138.996 55.66 139.268 55.376 139.468 55.008C139.668 54.632 139.768 54.196 139.768 53.7ZM149.684 58.272H148.592V47.46H149.684V58.272ZM157 52.812C157 51.996 157.184 51.264 157.552 50.616C157.92 49.96 158.42 49.448 159.052 49.08C159.692 48.712 160.4 48.528 161.176 48.528C162.088 48.528 162.884 48.748 163.564 49.188C164.244 49.628 164.74 50.252 165.052 51.06H163.744C163.512 50.556 163.176 50.168 162.736 49.896C162.304 49.624 161.784 49.488 161.176 49.488C160.592 49.488 160.068 49.624 159.604 49.896C159.14 50.168 158.776 50.556 158.512 51.06C158.248 51.556 158.116 52.14 158.116 52.812C158.116 53.476 158.248 54.06 158.512 54.564C158.776 55.06 159.14 55.444 159.604 55.716C160.068 55.988 160.592 56.124 161.176 56.124C161.784 56.124 162.304 55.992 162.736 55.728C163.176 55.456 163.512 55.068 163.744 54.564H165.052C164.74 55.364 164.244 55.984 163.564 56.424C162.884 56.856 162.088 57.072 161.176 57.072C160.4 57.072 159.692 56.892 159.052 56.532C158.42 56.164 157.92 55.656 157.552 55.008C157.184 54.36 157 53.628 157 52.812ZM170.745 57.108C170.129 57.108 169.569 56.968 169.065 56.688C168.569 56.408 168.177 56.012 167.889 55.5C167.609 54.98 167.469 54.38 167.469 53.7C167.469 53.028 167.613 52.436 167.901 51.924C168.197 51.404 168.597 51.008 169.101 50.736C169.605 50.456 170.169 50.316 170.793 50.316C171.417 50.316 171.981 50.456 172.485 50.736C172.989 51.008 173.385 51.4 173.673 51.912C173.969 52.424 174.117 53.02 174.117 53.7C174.117 54.38 173.965 54.98 173.661 55.5C173.365 56.012 172.961 56.408 172.449 56.688C171.937 56.968 171.369 57.108 170.745 57.108ZM170.745 56.148C171.137 56.148 171.505 56.056 171.849 55.872C172.193 55.688 172.469 55.412 172.677 55.044C172.893 54.676 173.001 54.228 173.001 53.7C173.001 53.172 172.897 52.724 172.689 52.356C172.481 51.988 172.209 51.716 171.873 51.54C171.537 51.356 171.173 51.264 170.781 51.264C170.381 51.264 170.013 51.356 169.677 51.54C169.349 51.716 169.085 51.988 168.885 52.356C168.685 52.724 168.585 53.172 168.585 53.7C168.585 54.236 168.681 54.688 168.873 55.056C169.073 55.424 169.337 55.7 169.665 55.884C169.993 56.06 170.353 56.148 170.745 56.148ZM184.661 50.304C185.173 50.304 185.629 50.412 186.029 50.628C186.429 50.836 186.745 51.152 186.977 51.576C187.209 52 187.325 52.516 187.325 53.124V57H186.245V53.28C186.245 52.624 186.081 52.124 185.753 51.78C185.433 51.428 184.997 51.252 184.445 51.252C183.877 51.252 183.425 51.436 183.089 51.804C182.753 52.164 182.585 52.688 182.585 53.376V57H181.505V53.28C181.505 52.624 181.341 52.124 181.013 51.78C180.693 51.428 180.257 51.252 179.705 51.252C179.137 51.252 178.685 51.436 178.349 51.804C178.013 52.164 177.845 52.688 177.845 53.376V57H176.753V50.424H177.845V51.372C178.061 51.028 178.349 50.764 178.709 50.58C179.077 50.396 179.481 50.304 179.921 50.304C180.473 50.304 180.961 50.428 181.385 50.676C181.809 50.924 182.125 51.288 182.333 51.768C182.517 51.304 182.821 50.944 183.245 50.688C183.669 50.432 184.141 50.304 184.661 50.304ZM191.408 51.636C191.624 51.26 191.944 50.948 192.368 50.7C192.8 50.444 193.3 50.316 193.868 50.316C194.452 50.316 194.98 50.456 195.452 50.736C195.932 51.016 196.308 51.412 196.58 51.924C196.852 52.428 196.988 53.016 196.988 53.688C196.988 54.352 196.852 54.944 196.58 55.464C196.308 55.984 195.932 56.388 195.452 56.676C194.98 56.964 194.452 57.108 193.868 57.108C193.308 57.108 192.812 56.984 192.38 56.736C191.956 56.48 191.632 56.164 191.408 55.788V60.12H190.316V50.424H191.408V51.636ZM195.872 53.688C195.872 53.192 195.772 52.76 195.572 52.392C195.372 52.024 195.1 51.744 194.756 51.552C194.42 51.36 194.048 51.264 193.64 51.264C193.24 51.264 192.868 51.364 192.524 51.564C192.188 51.756 191.916 52.04 191.708 52.416C191.508 52.784 191.408 53.212 191.408 53.7C191.408 54.196 191.508 54.632 191.708 55.008C191.916 55.376 192.188 55.66 192.524 55.86C192.868 56.052 193.24 56.148 193.64 56.148C194.048 56.148 194.42 56.052 194.756 55.86C195.1 55.66 195.372 55.376 195.572 55.008C195.772 54.632 195.872 54.192 195.872 53.688ZM200.718 48.12V57H199.626V48.12H200.718ZM204.343 49.356C204.135 49.356 203.959 49.284 203.815 49.14C203.671 48.996 203.599 48.82 203.599 48.612C203.599 48.404 203.671 48.228 203.815 48.084C203.959 47.94 204.135 47.868 204.343 47.868C204.543 47.868 204.711 47.94 204.847 48.084C204.991 48.228 205.063 48.404 205.063 48.612C205.063 48.82 204.991 48.996 204.847 49.14C204.711 49.284 204.543 49.356 204.343 49.356ZM204.871 50.424V57H203.779V50.424H204.871ZM207.524 53.688C207.524 53.016 207.66 52.428 207.932 51.924C208.204 51.412 208.576 51.016 209.048 50.736C209.528 50.456 210.06 50.316 210.644 50.316C211.22 50.316 211.72 50.44 212.144 50.688C212.568 50.936 212.884 51.248 213.092 51.624V50.424H214.196V57H213.092V55.776C212.876 56.16 212.552 56.48 212.12 56.736C211.696 56.984 211.2 57.108 210.632 57.108C210.048 57.108 209.52 56.964 209.048 56.676C208.576 56.388 208.204 55.984 207.932 55.464C207.66 54.944 207.524 54.352 207.524 53.688ZM213.092 53.7C213.092 53.204 212.992 52.772 212.792 52.404C212.592 52.036 212.32 51.756 211.976 51.564C211.64 51.364 211.268 51.264 210.86 51.264C210.452 51.264 210.08 51.36 209.744 51.552C209.408 51.744 209.14 52.024 208.94 52.392C208.74 52.76 208.64 53.192 208.64 53.688C208.64 54.192 208.74 54.632 208.94 55.008C209.14 55.376 209.408 55.66 209.744 55.86C210.08 56.052 210.452 56.148 210.86 56.148C211.268 56.148 211.64 56.052 211.976 55.86C212.32 55.66 212.592 55.376 212.792 55.008C212.992 54.632 213.092 54.196 213.092 53.7ZM220.445 50.304C221.245 50.304 221.893 50.548 222.389 51.036C222.885 51.516 223.133 52.212 223.133 53.124V57H222.053V53.28C222.053 52.624 221.889 52.124 221.561 51.78C221.233 51.428 220.785 51.252 220.217 51.252C219.641 51.252 219.181 51.432 218.837 51.792C218.501 52.152 218.333 52.676 218.333 53.364V57H217.241V50.424H218.333V51.36C218.549 51.024 218.841 50.764 219.209 50.58C219.585 50.396 219.997 50.304 220.445 50.304ZM225.709 53.7C225.709 53.02 225.845 52.428 226.117 51.924C226.389 51.412 226.765 51.016 227.245 50.736C227.733 50.456 228.289 50.316 228.913 50.316C229.721 50.316 230.385 50.512 230.905 50.904C231.433 51.296 231.781 51.84 231.949 52.536H230.773C230.661 52.136 230.441 51.82 230.113 51.588C229.793 51.356 229.393 51.24 228.913 51.24C228.289 51.24 227.785 51.456 227.401 51.888C227.017 52.312 226.825 52.916 226.825 53.7C226.825 54.492 227.017 55.104 227.401 55.536C227.785 55.968 228.289 56.184 228.913 56.184C229.393 56.184 229.793 56.072 230.113 55.848C230.433 55.624 230.653 55.304 230.773 54.888H231.949C231.773 55.56 231.421 56.1 230.893 56.508C230.365 56.908 229.705 57.108 228.913 57.108C228.289 57.108 227.733 56.968 227.245 56.688C226.765 56.408 226.389 56.012 226.117 55.5C225.845 54.988 225.709 54.388 225.709 53.7ZM240.606 53.46C240.606 53.668 240.594 53.888 240.57 54.12H235.314C235.354 54.768 235.574 55.276 235.974 55.644C236.382 56.004 236.874 56.184 237.45 56.184C237.922 56.184 238.314 56.076 238.626 55.86C238.946 55.636 239.17 55.34 239.298 54.972H240.474C240.298 55.604 239.946 56.12 239.418 56.52C238.89 56.912 238.234 57.108 237.45 57.108C236.826 57.108 236.266 56.968 235.77 56.688C235.282 56.408 234.898 56.012 234.618 55.5C234.338 54.98 234.198 54.38 234.198 53.7C234.198 53.02 234.334 52.424 234.606 51.912C234.878 51.4 235.258 51.008 235.746 50.736C236.242 50.456 236.81 50.316 237.45 50.316C238.074 50.316 238.626 50.452 239.106 50.724C239.586 50.996 239.954 51.372 240.21 51.852C240.474 52.324 240.606 52.86 240.606 53.46ZM239.478 53.232C239.478 52.816 239.386 52.46 239.202 52.164C239.018 51.86 238.766 51.632 238.446 51.48C238.134 51.32 237.786 51.24 237.402 51.24C236.85 51.24 236.378 51.416 235.986 51.768C235.602 52.12 235.382 52.608 235.326 53.232H239.478ZM249.015 58.272H247.923V47.46H249.015V58.272ZM261.682 55.14H258.034L257.362 57H256.21L259.234 48.684H260.494L263.506 57H262.354L261.682 55.14ZM261.37 54.252L259.858 50.028L258.346 54.252H261.37ZM265.616 53.688C265.616 53.016 265.752 52.428 266.024 51.924C266.296 51.412 266.668 51.016 267.14 50.736C267.62 50.456 268.156 50.316 268.748 50.316C269.26 50.316 269.736 50.436 270.176 50.676C270.616 50.908 270.952 51.216 271.184 51.6V48.12H272.288V57H271.184V55.764C270.968 56.156 270.648 56.48 270.224 56.736C269.8 56.984 269.304 57.108 268.736 57.108C268.152 57.108 267.62 56.964 267.14 56.676C266.668 56.388 266.296 55.984 266.024 55.464C265.752 54.944 265.616 54.352 265.616 53.688ZM271.184 53.7C271.184 53.204 271.084 52.772 270.884 52.404C270.684 52.036 270.412 51.756 270.068 51.564C269.732 51.364 269.36 51.264 268.952 51.264C268.544 51.264 268.172 51.36 267.836 51.552C267.5 51.744 267.232 52.024 267.032 52.392C266.832 52.76 266.732 53.192 266.732 53.688C266.732 54.192 266.832 54.632 267.032 55.008C267.232 55.376 267.5 55.66 267.836 55.86C268.172 56.052 268.544 56.148 268.952 56.148C269.36 56.148 269.732 56.052 270.068 55.86C270.412 55.66 270.684 55.376 270.884 55.008C271.084 54.632 271.184 54.196 271.184 53.7ZM277.781 55.992L279.821 50.424H280.985L278.405 57H277.133L274.553 50.424H275.729L277.781 55.992ZM283.824 49.356C283.616 49.356 283.44 49.284 283.296 49.14C283.152 48.996 283.08 48.82 283.08 48.612C283.08 48.404 283.152 48.228 283.296 48.084C283.44 47.94 283.616 47.868 283.824 47.868C284.024 47.868 284.192 47.94 284.328 48.084C284.472 48.228 284.544 48.404 284.544 48.612C284.544 48.82 284.472 48.996 284.328 49.14C284.192 49.284 284.024 49.356 283.824 49.356ZM284.352 50.424V57H283.26V50.424H284.352ZM289.741 57.108C289.237 57.108 288.785 57.024 288.385 56.856C287.985 56.68 287.669 56.44 287.437 56.136C287.205 55.824 287.077 55.468 287.053 55.068H288.181C288.213 55.396 288.365 55.664 288.637 55.872C288.917 56.08 289.281 56.184 289.729 56.184C290.145 56.184 290.473 56.092 290.713 55.908C290.953 55.724 291.073 55.492 291.073 55.212C291.073 54.924 290.945 54.712 290.689 54.576C290.433 54.432 290.037 54.292 289.501 54.156C289.013 54.028 288.613 53.9 288.301 53.772C287.997 53.636 287.733 53.44 287.509 53.184C287.293 52.92 287.185 52.576 287.185 52.152C287.185 51.816 287.285 51.508 287.485 51.228C287.685 50.948 287.969 50.728 288.337 50.568C288.705 50.4 289.125 50.316 289.597 50.316C290.325 50.316 290.913 50.5 291.361 50.868C291.809 51.236 292.049 51.74 292.081 52.38H290.989C290.965 52.036 290.825 51.76 290.569 51.552C290.321 51.344 289.985 51.24 289.561 51.24C289.169 51.24 288.857 51.324 288.625 51.492C288.393 51.66 288.277 51.88 288.277 52.152C288.277 52.368 288.345 52.548 288.481 52.692C288.625 52.828 288.801 52.94 289.009 53.028C289.225 53.108 289.521 53.2 289.897 53.304C290.369 53.432 290.753 53.56 291.049 53.688C291.345 53.808 291.597 53.992 291.805 54.24C292.021 54.488 292.133 54.812 292.141 55.212C292.141 55.572 292.041 55.896 291.841 56.184C291.641 56.472 291.357 56.7 290.989 56.868C290.629 57.028 290.213 57.108 289.741 57.108ZM297.751 57.108C297.135 57.108 296.575 56.968 296.071 56.688C295.575 56.408 295.183 56.012 294.895 55.5C294.615 54.98 294.475 54.38 294.475 53.7C294.475 53.028 294.619 52.436 294.907 51.924C295.203 51.404 295.603 51.008 296.107 50.736C296.611 50.456 297.175 50.316 297.799 50.316C298.423 50.316 298.987 50.456 299.491 50.736C299.995 51.008 300.391 51.4 300.679 51.912C300.975 52.424 301.123 53.02 301.123 53.7C301.123 54.38 300.971 54.98 300.667 55.5C300.371 56.012 299.967 56.408 299.455 56.688C298.943 56.968 298.375 57.108 297.751 57.108ZM297.751 56.148C298.143 56.148 298.511 56.056 298.855 55.872C299.199 55.688 299.475 55.412 299.683 55.044C299.899 54.676 300.007 54.228 300.007 53.7C300.007 53.172 299.903 52.724 299.695 52.356C299.487 51.988 299.215 51.716 298.879 51.54C298.543 51.356 298.179 51.264 297.787 51.264C297.387 51.264 297.019 51.356 296.683 51.54C296.355 51.716 296.091 51.988 295.891 52.356C295.691 52.724 295.591 53.172 295.591 53.7C295.591 54.236 295.687 54.688 295.879 55.056C296.079 55.424 296.343 55.7 296.671 55.884C296.999 56.06 297.359 56.148 297.751 56.148ZM304.85 51.492C305.042 51.116 305.314 50.824 305.666 50.616C306.026 50.408 306.462 50.304 306.974 50.304V51.432H306.686C305.462 51.432 304.85 52.096 304.85 53.424V57H303.758V50.424H304.85V51.492ZM315.099 50.424L311.139 60.096H310.011L311.307 56.928L308.655 50.424H309.867L311.931 55.752L313.971 50.424H315.099Z" fill="#6B7280"/>
</g>
<defs>
<clipPath id="clip0_1_3213">
<rect width="560" height="76" fill="white"/>
</clipPath>
</defs>
</svg>
